<?xml version="1.0" encoding="UTF-8"?>
<svg width="100pt" height="100pt" version="1.1" viewBox="0 0 100 100" xmlns="http://www.w3.org/2000/svg">
 <g>
  <path d="m37.5 34.375c0-1.7266 1.3984-3.125 3.125-3.125h18.75c1.7266 0 3.125 1.3984 3.125 3.125s-1.3984 3.125-3.125 3.125h-18.75c-1.7266 0-3.125-1.3984-3.125-3.125z"/>
  <path d="m28.125 50c-1.7266 0-3.125 1.3984-3.125 3.125s1.3984 3.125 3.125 3.125h43.75c1.7266 0 3.125-1.3984 3.125-3.125s-1.3984-3.125-3.125-3.125z"/>
  <path d="m9.375 15.625c0-8.6289 6.9961-15.625 15.625-15.625h50c8.6289 0 15.625 6.9961 15.625 15.625v81.25c0 1.1523-0.63281 2.2109-1.6484 2.7539-1.0195 0.54688-2.25 0.48438-3.2109-0.15234l-17.016-11.344-17.016 11.344c-1.0508 0.69922-2.418 0.69922-3.4688 0l-17.016-11.344-17.016 11.344c-0.96094 0.63672-2.1914 0.69922-3.207 0.15234-1.0195-0.54297-1.6523-1.6016-1.6523-2.7539zm15.625-9.375c-5.1758 0-9.375 4.1992-9.375 9.375v75.41l13.891-9.2617c1.0508-0.69922 2.418-0.69922 3.4688 0l17.016 11.344 17.016-11.344c1.0508-0.69922 2.418-0.69922 3.4688 0l13.891 9.2617v-75.41c0-5.1758-4.1953-9.375-9.375-9.375z" fill-rule="evenodd"/>
 </g>
</svg>
